<svg width="56" height="56" viewBox="0 0 56 56" fill="none" xmlns="http://www.w3.org/2000/svg">
<circle cx="27.5888" cy="27.5888" r="27.5888" fill="url(#paint0_linear_4452_20776)"/>
<g clip-path="url(#clip0_4452_20776)">
<path d="M27.5893 16.2784C31.275 16.2784 31.7115 16.2946 33.1609 16.3593C34.508 16.4185 35.2355 16.6449 35.7204 16.8334C36.3617 17.0813 36.8251 17.3831 37.3046 17.8626C37.7896 18.3476 38.086 18.8056 38.3338 19.4468C38.5224 19.9318 38.7487 20.6646 38.808 22.0063C38.8727 23.4612 38.8888 23.8977 38.8888 27.578C38.8888 31.2637 38.8727 31.7001 38.808 33.1496C38.7487 34.4967 38.5224 35.2242 38.3338 35.7091C38.086 36.3503 37.7842 36.8137 37.3046 37.2933C36.8197 37.7783 36.3617 38.0746 35.7204 38.3225C35.2355 38.5111 34.5027 38.7374 33.1609 38.7967C31.7061 38.8613 31.2696 38.8775 27.5893 38.8775C23.9036 38.8775 23.4672 38.8613 22.0177 38.7967C20.6706 38.7374 19.9431 38.5111 19.4582 38.3225C18.8169 38.0746 18.3535 37.7729 17.874 37.2933C17.389 36.8084 17.0926 36.3503 16.8448 35.7091C16.6562 35.2242 16.4299 34.4913 16.3706 33.1496C16.3059 31.6947 16.2898 31.2583 16.2898 27.578C16.2898 23.8923 16.3059 23.4558 16.3706 22.0063C16.4299 20.6592 16.6562 19.9318 16.8448 19.4468C17.0926 18.8056 17.3944 18.3422 17.874 17.8626C18.3589 17.3777 18.8169 17.0813 19.4582 16.8334C19.9431 16.6449 20.6759 16.4185 22.0177 16.3593C23.4672 16.2946 23.9036 16.2784 27.5893 16.2784ZM27.5893 13.7944C23.8443 13.7944 23.3756 13.8105 21.9045 13.8752C20.4389 13.9399 19.4312 14.177 18.5583 14.5164C17.6476 14.8721 16.8771 15.3409 16.1119 16.1114C15.3414 16.8766 14.8726 17.6471 14.517 18.5524C14.1775 19.4307 13.9404 20.4329 13.8757 21.8986C13.8111 23.375 13.7949 23.8438 13.7949 27.5888C13.7949 31.3337 13.8111 31.8025 13.8757 33.2735C13.9404 34.7392 14.1775 35.7468 14.517 36.6198C14.8726 37.5304 15.3414 38.3009 16.1119 39.0661C16.8771 39.8313 17.6476 40.3054 18.5529 40.6557C19.4312 40.9952 20.4335 41.2323 21.8991 41.2969C23.3702 41.3616 23.839 41.3777 27.5839 41.3777C31.3289 41.3777 31.7977 41.3616 33.2687 41.2969C34.7344 41.2323 35.742 40.9952 36.6149 40.6557C37.5202 40.3054 38.2907 39.8313 39.0559 39.0661C39.821 38.3009 40.2952 37.5304 40.6455 36.6251C40.9849 35.7468 41.222 34.7446 41.2867 33.2789C41.3514 31.8079 41.3675 31.3391 41.3675 27.5941C41.3675 23.8492 41.3514 23.3804 41.2867 21.9093C41.222 20.4437 40.9849 19.4361 40.6455 18.5631C40.306 17.6471 39.8372 16.8766 39.0667 16.1114C38.3015 15.3462 37.531 14.8721 36.6257 14.5218C35.7474 14.1823 34.7451 13.9452 33.2795 13.8806C31.8031 13.8105 31.3343 13.7944 27.5893 13.7944Z" fill="#FCFCFD"/>
<path d="M27.5897 20.503C23.6777 20.503 20.5039 23.6767 20.5039 27.5887C20.5039 31.5007 23.6777 34.6745 27.5897 34.6745C31.5017 34.6745 34.6755 31.5007 34.6755 27.5887C34.6755 23.6767 31.5017 20.503 27.5897 20.503ZM27.5897 32.1851C25.0517 32.1851 22.9934 30.1267 22.9934 27.5887C22.9934 25.0508 25.0517 22.9924 27.5897 22.9924C30.1276 22.9924 32.186 25.0508 32.186 27.5887C32.186 30.1267 30.1276 32.1851 27.5897 32.1851Z" fill="#FCFCFD"/>
<path d="M36.6093 20.2223C36.6093 21.1383 35.8657 21.8765 34.955 21.8765C34.039 21.8765 33.3008 21.1329 33.3008 20.2223C33.3008 19.3062 34.0444 18.568 34.955 18.568C35.8657 18.568 36.6093 19.3116 36.6093 20.2223Z" fill="#FCFCFD"/>
</g>
<defs>
<linearGradient id="paint0_linear_4452_20776" x1="27.5888" y1="0" x2="27.5888" y2="55.1775" gradientUnits="userSpaceOnUse">
<stop offset="0.114583" stop-color="#E99E86"/>
<stop offset="0.510417" stop-color="#C32AA3"/>
<stop offset="1" stop-color="#7232BD"/>
</linearGradient>
<clipPath id="clip0_4452_20776">
<rect width="27.5888" height="27.5888" fill="white" transform="translate(13.7949 13.7944)"/>
</clipPath>
</defs>
</svg>
