<svg width="56" height="56" viewBox="0 0 56 56" fill="none" xmlns="http://www.w3.org/2000/svg">
<path d="M27.5888 55.1775C42.8256 55.1775 55.1775 42.8256 55.1775 27.5888C55.1775 12.3519 42.8256 0 27.5888 0C12.3519 0 0 12.3519 0 27.5888C0 42.8256 12.3519 55.1775 27.5888 55.1775Z" fill="url(#paint0_linear_4452_20764)"/>
<path fill-rule="evenodd" clip-rule="evenodd" d="M12.4874 27.2971C20.5301 23.793 25.8932 21.4829 28.5766 20.3668C36.2383 17.18 37.8303 16.6264 38.868 16.6082C39.0962 16.6041 39.6065 16.6607 39.937 16.9289C40.2161 17.1554 40.2929 17.4613 40.3297 17.6761C40.3664 17.8908 40.4122 18.3799 40.3758 18.7621C39.9606 23.1246 38.1641 33.711 37.2501 38.597C36.8634 40.6645 36.1019 41.3577 35.3647 41.4255C33.7626 41.5729 32.546 40.3667 30.9942 39.3495C28.5661 37.7578 27.1943 36.767 24.8373 35.2138C22.1135 33.4188 23.8792 32.4323 25.4316 30.8199C25.8378 30.398 32.8969 23.9773 33.0335 23.3948C33.0506 23.322 33.0664 23.0504 32.9051 22.907C32.7438 22.7637 32.5057 22.8127 32.3339 22.8517C32.0904 22.907 28.2113 25.4709 20.6968 30.5434C19.5957 31.2994 18.5984 31.6678 17.7049 31.6485C16.7198 31.6272 14.825 31.0915 13.4163 30.6337C11.6886 30.072 10.3154 29.7751 10.435 28.8213C10.4973 28.3245 11.1814 27.8164 12.4874 27.2971Z" fill="#F4F5F8"/>
<defs>
<linearGradient id="paint0_linear_4452_20764" x1="27.5888" y1="0" x2="27.5888" y2="54.7683" gradientUnits="userSpaceOnUse">
<stop stop-color="#2AABEE"/>
<stop offset="1" stop-color="#229ED9"/>
</linearGradient>
</defs>
</svg>
