<svg width="56" height="56" viewBox="0 0 56 56" fill="none" xmlns="http://www.w3.org/2000/svg">
<circle cx="27.5888" cy="27.5888" r="27.5888" fill="#1DA1F2"/>
<g clip-path="url(#clip0_4452_20767)">
<path d="M22.3141 43.5387C35.8483 43.5387 43.2509 32.3257 43.2509 22.6019C43.2509 22.2834 43.2509 21.9664 43.2294 21.6507C44.6695 20.6091 45.9126 19.3193 46.9005 17.8418C45.5577 18.4372 44.133 18.8275 42.6742 18.9996C44.2104 18.0801 45.3601 16.6336 45.9092 14.9296C44.4648 15.7868 42.8846 16.3908 41.2367 16.7157C40.1272 15.536 38.6599 14.7548 37.0618 14.493C35.4636 14.2313 33.8238 14.5035 32.3959 15.2677C30.9681 16.0318 29.8319 17.2452 29.1632 18.7202C28.4945 20.1951 28.3306 21.8493 28.6967 23.4268C25.7712 23.28 22.9092 22.5197 20.2966 21.1953C17.6839 19.8708 15.379 18.0117 13.5314 15.7387C12.5904 17.3586 12.3022 19.2763 12.7255 21.1012C13.1487 22.9261 14.2516 24.5212 15.8096 25.5615C14.6385 25.5272 13.4929 25.2113 12.4698 24.6405V24.7337C12.4702 26.4326 13.0583 28.0791 14.1343 29.3938C15.2103 30.7085 16.708 31.6106 18.3732 31.947C17.2899 32.2425 16.1533 32.2857 15.0506 32.0732C15.521 33.5352 16.4365 34.8137 17.6691 35.7299C18.9017 36.6461 20.3898 37.1543 21.9253 37.1833C20.3997 38.3825 18.6525 39.2692 16.7839 39.7925C14.9152 40.3159 12.9617 40.4657 11.0352 40.2333C14.4003 42.3927 18.3157 43.5382 22.3141 43.5329" fill="white"/>
</g>
<defs>
<clipPath id="clip0_4452_20767">
<rect width="35.8654" height="35.8654" fill="white" transform="translate(11.0352 11.035)"/>
</clipPath>
</defs>
</svg>
