<svg width="54" height="54" viewBox="0 0 54 54" fill="none" xmlns="http://www.w3.org/2000/svg">
<circle cx="27" cy="27" r="27" fill="#FFC550"/>
<path fill-rule="evenodd" clip-rule="evenodd" d="M25.2843 21.5047C26.0614 20.4574 26.3401 19.3536 25.4612 18.3793C23.4887 15.6193 22.1622 13.9126 21.3302 13.0906C19.7483 11.528 17.1462 11.7394 15.7762 13.0893C15.0404 13.8143 14.7913 14.0633 14.0357 14.8307C9.82724 19.0415 12.3938 27.9428 19.2166 34.7724C26.0379 41.6003 34.9384 44.1683 39.1557 39.9486C39.8529 39.2765 40.4432 38.6859 40.9087 38.1938C42.2513 36.7748 42.4551 34.2874 40.8999 32.6715C40.1025 31.843 38.475 30.5805 35.5989 28.5232C34.718 27.7356 33.6736 27.9063 32.7161 28.5345C32.2555 28.8367 31.9203 29.1424 31.2873 29.7759L30.138 30.9259C29.9866 31.0774 27.931 30.048 25.9356 28.0506C23.9391 26.0521 22.9104 23.9964 23.061 23.8458C23.3717 23.5351 23.7551 23.1515 24.2112 22.695C24.412 22.494 24.508 22.3966 24.6311 22.2672C24.8876 21.9976 25.1 21.753 25.2843 21.5047ZM32.2581 33.0472L33.4077 31.8969C33.7561 31.5482 33.9818 31.3338 34.1655 31.186C36.6849 32.9953 38.1441 34.133 38.7401 34.7523C39.0979 35.1241 39.0423 35.8025 38.7313 36.1313C38.3008 36.5863 37.7415 37.1459 37.0551 37.8079C34.3281 40.5361 27.1434 38.4633 21.3372 32.6514C15.5292 26.8377 13.4573 19.6519 16.1638 16.944C16.9163 16.1797 17.1547 15.9414 17.88 15.2267C18.152 14.9587 18.8928 14.8986 19.2236 15.2254C19.8642 15.8582 21.0525 17.3797 22.8006 19.8147C22.7101 19.9271 22.5971 20.054 22.4595 20.1986C22.3586 20.3047 22.2745 20.39 22.0906 20.574C21.6349 21.0302 21.2519 21.4134 20.9416 21.7237C18.9868 23.6782 20.6515 27.0048 23.815 30.1714C26.9762 33.3357 30.3041 35.0023 32.2581 33.0472Z" fill="white"/>
</svg>
